<svg width="24" height="24" viewBox="0 0 24 24" fill="none" xmlns="http://www.w3.org/2000/svg">
<path d="M2.59995 10.59L8.37995 4.80001L10.0699 6.50001C9.82995 7.35001 10.2199 8.28001 10.9999 8.73001V14.27C10.3999 14.61 9.99995 15.26 9.99995 16C9.99995 16.5304 10.2107 17.0391 10.5857 17.4142C10.9608 17.7893 11.4695 18 11.9999 18C12.5304 18 13.0391 17.7893 13.4142 17.4142C13.7892 17.0391 13.9999 16.5304 13.9999 16C13.9999 15.26 13.5999 14.61 12.9999 14.27V9.41001L15.0699 11.5C14.9999 11.65 14.9999 11.82 14.9999 12C14.9999 12.5304 15.2107 13.0391 15.5857 13.4142C15.9608 13.7893 16.4695 14 16.9999 14C17.5304 14 18.0391 13.7893 18.4142 13.4142C18.7892 13.0391 18.9999 12.5304 18.9999 12C18.9999 11.4696 18.7892 10.9609 18.4142 10.5858C18.0391 10.2107 17.5304 10 16.9999 10C16.8199 10 16.6499 10 16.4999 10.07L13.9299 7.50001C14.0541 7.03684 14.006 6.54436 13.7945 6.114C13.583 5.68364 13.2225 5.34466 12.7799 5.16001C12.3499 5.00001 11.8999 4.96001 11.4999 5.07001L9.79995 3.38001L10.5899 2.60001C11.3699 1.81001 12.6299 1.81001 13.4099 2.60001L21.3999 10.59C22.1899 11.37 22.1899 12.63 21.3999 13.41L13.4099 21.4C12.6299 22.19 11.3699 22.19 10.5899 21.4L2.59995 13.41C1.80995 12.63 1.80995 11.37 2.59995 10.59Z" fill="white"/>
</svg>
