<svg width="24" height="24" viewBox="0 0 24 24" fill="none" xmlns="http://www.w3.org/2000/svg">
<path d="M15.638 4.56601L15.694 4.59801C14.936 4.99801 12.77 6.28801 12.77 7.93001C12.77 8.48401 13.087 9.01801 13.384 9.52001C13.646 9.96201 13.893 10.378 13.893 10.758C13.893 11.715 12.96 12.458 12.433 12.8L12.333 12.742C12.532 12.499 12.777 12.092 12.777 11.658C12.777 11.06 12.47 10.582 12.159 10.097C11.837 9.59601 11.511 9.08701 11.511 8.42701C11.511 6.13501 14.626 4.90501 15.638 4.56601ZM11.543 5.77801C12.796 4.65801 14.165 3.43401 14.165 1.59301C14.165 0.760015 13.824 0.228015 13.655 0.0150146L13.6 0.0460146C13.64 0.212015 13.7 0.518015 13.7 0.918015C13.7 2.59401 12.278 3.76801 10.902 4.90601C9.61096 5.97401 8.35996 7.00801 8.35996 8.39201C8.35996 10.377 10.318 11.598 11.145 12.114L11.208 12.154L11.258 12.124C11.2133 12.0747 11.166 12.024 11.116 11.972C10.48 11.295 9.51396 10.268 9.51396 8.69701C9.51396 7.59401 10.487 6.72301 11.543 5.77801ZM11.092 15.686C12.856 15.686 14.09 15.433 14.638 15.278L15.47 15.758C14.677 16.161 12.919 16.468 11.088 16.468C8.93496 16.468 6.58096 16.006 6.57396 15.39C6.56896 15.05 7.33896 14.824 8.16896 14.678L8.21896 14.707C8.21896 14.707 7.93796 14.808 7.94096 15.04C7.94496 15.39 9.36096 15.686 11.091 15.686M7.56196 17.857C7.56196 17.45 8.40096 17.257 8.78496 17.18L8.83496 17.21C8.76896 17.259 8.73296 17.326 8.73296 17.383C8.73296 17.65 9.66296 17.894 11.089 17.894C12.367 17.894 13.077 17.737 13.499 17.636L14.489 18.209C14.444 18.241 13.469 18.854 11.087 18.854C9.35596 18.854 7.56196 18.422 7.56196 17.857ZM16.091 16.129C17.271 15.456 18.452 14.66 18.519 13.382C18.563 12.543 17.792 11.928 16.949 12.092L16.994 11.98V11.978C17.206 11.914 17.468 11.862 17.761 11.862C18.704 11.862 19.427 12.427 19.519 13.218C19.705 14.804 17.457 15.836 16.198 16.191L16.091 16.129ZM18.066 19.117C18.076 20.207 14.368 20.855 11.054 20.884C8.19296 20.909 3.57996 20.369 3.56996 19.279C3.56396 18.526 5.56996 18.005 6.65996 17.855L6.77496 17.92C6.77496 17.92 5.14996 18.297 5.15496 18.982C5.16096 19.665 8.57996 20.256 11.049 20.235C14.874 20.201 17.463 19.578 17.769 18.733L17.823 18.702C17.935 18.784 18.063 18.919 18.066 19.117ZM6.42996 21.337C7.8449 21.5631 9.27611 21.6718 10.709 21.662C16.917 21.608 18.669 20.082 18.939 19.75L18.986 19.778C18.922 20.986 15.639 21.99 11.59 22.025C9.52896 22.043 7.65296 21.805 6.30496 21.41L6.42996 21.337ZM9.03196 12.054C7.95296 12.137 5.63596 12.48 5.63596 13.09C5.63596 13.552 7.75996 14.203 11.088 14.203C14.082 14.203 15.972 13.638 16.413 13.423L15.77 13.048C15.31 13.173 13.601 13.554 11.088 13.554C9.60796 13.554 7.05796 13.281 7.05796 12.864C7.05796 12.49 8.64896 12.202 9.10596 12.119L9.13496 12.114L9.03196 12.054Z" fill="white"/>
</svg>
