<svg width="24" height="24" viewBox="0 0 24 24" fill="none" xmlns="http://www.w3.org/2000/svg">
<path d="M13.483 -1.21298e-05C13.3018 0.00578094 13.1236 0.0474786 12.9586 0.122664C12.7937 0.19785 12.6453 0.305028 12.522 0.437988L7.11603 6.22599L3.26203 10.352C2.70174 10.9504 2.28789 11.6706 2.05303 12.456C2.00236 12.6247 1.96063 12.7959 1.92803 12.969C1.77733 13.7515 1.79849 14.5574 1.99003 15.331C2.07569 15.6797 2.19249 16.0201 2.33903 16.348C2.64394 17.0289 3.07523 17.6458 3.61003 18.166L7.88703 22.359L7.92603 22.397C10.174 24.562 13.778 24.53 15.989 22.323L18.385 19.931C18.925 19.391 18.925 18.517 18.388 17.976C18.1297 17.717 17.779 17.5712 17.4131 17.5706C17.0473 17.57 16.6962 17.7148 16.437 17.973L14.041 20.365C13.4825 20.9166 12.7312 21.229 11.9462 21.2361C11.1613 21.2432 10.4044 20.9444 9.83603 20.403L9.81603 20.384L5.54003 16.191C4.88803 15.551 4.56803 14.722 4.59203 13.928C4.59692 13.7519 4.61902 13.5768 4.65803 13.405C4.75876 12.9694 4.97223 12.568 5.27703 12.241L9.13003 8.11399C10.188 6.97999 12.334 6.84399 13.56 7.83599L17.061 10.667C17.654 11.147 18.522 11.054 19.001 10.46C19.2306 10.1746 19.3378 9.80991 19.299 9.44572C19.2602 9.08152 19.0786 8.74755 18.794 8.51699L15.294 5.68599C14.494 5.03899 13.528 4.64099 12.52 4.48399L14.535 2.32599C14.7208 2.12627 14.8434 1.87612 14.8874 1.60696C14.9315 1.3378 14.895 1.06162 14.7826 0.813118C14.6702 0.564611 14.4869 0.354853 14.2557 0.210185C14.0245 0.0655178 13.7557 -0.00760918 13.483 -1.21298e-05ZM10.617 12.815C10.4356 12.815 10.256 12.8507 10.0885 12.9202C9.9209 12.9897 9.76868 13.0915 9.64051 13.2199C9.51234 13.3482 9.41073 13.5006 9.3415 13.6683C9.27227 13.8359 9.23677 14.0156 9.23703 14.197C9.23677 14.3784 9.27227 14.558 9.3415 14.7257C9.41073 14.8934 9.51234 15.0457 9.64051 15.1741C9.76868 15.3024 9.9209 15.4043 10.0885 15.4738C10.256 15.5432 10.4356 15.579 10.617 15.579H20.79C20.9714 15.579 21.151 15.5432 21.3186 15.4738C21.4862 15.4043 21.6384 15.3024 21.7665 15.1741C21.8947 15.0457 21.9963 14.8934 22.0656 14.7257C22.1348 14.558 22.1703 14.3784 22.17 14.197C22.1703 14.0156 22.1348 13.8359 22.0656 13.6683C21.9963 13.5006 21.8947 13.3482 21.7665 13.2199C21.6384 13.0915 21.4862 12.9897 21.3186 12.9202C21.151 12.8507 20.9714 12.815 20.79 12.815H10.617Z" fill="white"/>
</svg>
