<svg width="24" height="24" viewBox="0 0 24 24" fill="none" xmlns="http://www.w3.org/2000/svg">
<path d="M13.74 4.23003C13.1397 3.51451 12.5682 2.77525 12.027 2.01403C12.024 2.00969 12.0199 2.00616 12.0152 2.00372C12.0105 2.00127 12.0053 2 12 2C11.9947 2 11.9895 2.00127 11.9848 2.00372C11.9801 2.00616 11.976 2.00969 11.973 2.01403C11.4318 2.77559 10.8604 3.51519 10.26 4.23103C3.04801 13.418 11.398 19.616 11.398 19.616L11.465 19.663C11.529 20.622 11.686 22 11.686 22H12.314C12.314 22 12.471 20.628 12.534 19.67L12.603 19.616C12.603 19.616 20.952 13.418 13.741 4.23103M12 19.482C12 19.482 11.626 19.162 11.525 19.002L11.524 18.986L11.977 8.98403C11.9781 8.97862 11.9811 8.97377 11.9854 8.97029C11.9896 8.9668 11.995 8.9649 12.0005 8.9649C12.006 8.9649 12.0114 8.9668 12.0157 8.97029C12.0199 8.97377 12.0229 8.97862 12.024 8.98403L12.476 18.986V19.003C12.375 19.163 12 19.482 12 19.482Z" fill="white"/>
</svg>
