<svg width="15" height="15" viewBox="0 0 15 15" fill="none" xmlns="http://www.w3.org/2000/svg">
<path fill-rule="evenodd" clip-rule="evenodd" d="M6 3.5C6 3.10218 6.15803 2.72064 6.43934 2.43934C6.72064 2.15804 7.10217 2 7.5 2C7.89782 2 8.27935 2.15804 8.56066 2.43934C8.84196 2.72064 9 3.10218 9 3.5C9 3.89782 8.84196 4.27936 8.56066 4.56066C8.27935 4.84196 7.89782 5 7.5 5C7.10217 5 6.72064 4.84196 6.43934 4.56066C6.15803 4.27936 6 3.89782 6 3.5ZM8 5.95C8.60702 5.82609 9.14641 5.48121 9.5136 4.98221C9.88078 4.4832 10.0496 3.86564 9.98734 3.24924C9.92507 2.63284 9.63614 2.06151 9.17657 1.64603C8.71701 1.23055 8.11954 1.00051 7.5 1.00051C6.88046 1.00051 6.28299 1.23055 5.82342 1.64603C5.36385 2.06151 5.07493 2.63284 5.01266 3.24924C4.95039 3.86564 5.11921 4.4832 5.4864 4.98221C5.85359 5.48121 6.39298 5.82609 7 5.95V13.5C7 13.6326 7.05268 13.7598 7.14644 13.8536C7.24021 13.9473 7.36739 14 7.5 14C7.63261 14 7.75978 13.9473 7.85355 13.8536C7.94732 13.7598 8 13.6326 8 13.5V5.95Z" fill="#9CA3AF"/>
</svg>
