<svg width="24" height="24" viewBox="0 0 24 24" fill="none" xmlns="http://www.w3.org/2000/svg">
<path d="M8.28597 10.578L8.79797 1.92098C8.80204 1.85324 8.82852 1.78878 8.87323 1.73773C8.91794 1.68668 8.97836 1.65194 9.04497 1.63898L17.377 0.00597928C17.4284 -0.00412603 17.4816 -0.000837356 17.5314 0.0155298C17.5813 0.0318969 17.626 0.0607931 17.6615 0.0994459C17.6969 0.138099 17.7218 0.185211 17.7338 0.236262C17.7458 0.287313 17.7445 0.340589 17.73 0.390979L16.172 5.79398C16.1575 5.84427 16.1562 5.89744 16.1681 5.94838C16.1801 5.99933 16.2049 6.04637 16.2402 6.08499C16.2755 6.12361 16.3202 6.15253 16.3698 6.16899C16.4195 6.18544 16.4726 6.18888 16.524 6.17898L18.912 5.71898C18.9682 5.70799 19.0263 5.71299 19.0798 5.7334C19.1333 5.75381 19.18 5.78882 19.2146 5.83445C19.2491 5.88007 19.2702 5.93449 19.2754 5.9915C19.2806 6.04852 19.2697 6.10585 19.244 6.15698L12.454 19.707L12.331 19.897C12.3041 19.9396 12.2669 19.9748 12.2229 19.9992C12.1788 20.0237 12.1294 20.0367 12.079 20.037C11.902 20.037 11.729 19.885 11.774 19.668L12.869 14.367C12.8797 14.3151 12.8768 14.2612 12.8605 14.2108C12.8442 14.1603 12.815 14.115 12.7759 14.0792C12.7368 14.0434 12.689 14.0184 12.6373 14.0066C12.5856 13.9948 12.5317 13.9967 12.481 14.012L11.048 14.447C10.9972 14.4624 10.9434 14.4644 10.8916 14.4528C10.8399 14.4412 10.792 14.4163 10.7528 14.3806C10.7136 14.3449 10.6843 14.2996 10.6679 14.2492C10.6514 14.1988 10.6483 14.1449 10.659 14.093L11.349 10.718C11.3594 10.6676 11.357 10.6154 11.3419 10.5662C11.3269 10.517 11.2996 10.4723 11.2627 10.4365C11.2259 10.4006 11.1805 10.3746 11.1309 10.3608C11.0813 10.3471 11.0291 10.3461 10.979 10.358L8.65897 10.894C8.61267 10.9046 8.56452 10.9043 8.51835 10.8931C8.47218 10.8819 8.42925 10.8601 8.39296 10.8295C8.35667 10.7988 8.32802 10.7601 8.30928 10.7165C8.29053 10.6728 8.28221 10.6254 8.28497 10.578H8.28597ZM23.262 2.65198L17.284 3.73998L16.74 5.62698L18.817 5.22698C18.9779 5.19489 19.1449 5.21309 19.2951 5.2791C19.4454 5.34511 19.5717 5.45574 19.657 5.59598C19.7293 5.71261 19.7705 5.8459 19.7764 5.98303C19.7824 6.12016 19.7529 6.25651 19.691 6.37898L12.9 19.93L12.887 19.955L12.872 19.978L12.75 20.168C12.6779 20.281 12.5786 20.3741 12.4612 20.4388C12.3438 20.5034 12.212 20.5375 12.078 20.538C11.9566 20.537 11.837 20.5095 11.7275 20.4573C11.6179 20.4052 11.5212 20.3296 11.444 20.236C11.3691 20.1433 11.3158 20.035 11.2882 19.9191C11.2605 19.8032 11.259 19.6825 11.284 19.566L12.313 14.585L11.193 14.925C11.0398 14.9711 10.8763 14.9709 10.7233 14.9242C10.5702 14.8776 10.4344 14.7867 10.333 14.663C10.2572 14.5707 10.2031 14.4626 10.1745 14.3467C10.146 14.2307 10.1437 14.1099 10.168 13.993L10.798 10.913L8.77097 11.381C8.63375 11.4122 8.49075 11.4071 8.35608 11.3663C8.22141 11.3254 8.09971 11.2502 8.00297 11.148C7.92757 11.0682 7.8694 10.9738 7.83207 10.8705C7.79473 10.7673 7.77904 10.6575 7.78597 10.548L8.17497 3.97798L0.73497 2.64798C0.620338 2.62729 0.502184 2.63975 0.394387 2.68389C0.28659 2.72802 0.193627 2.80201 0.12642 2.89715C0.0592136 2.99229 0.0205538 3.10463 0.0149828 3.22098C0.00941167 3.33733 0.0371606 3.45285 0.0949698 3.55398L11.58 23.691C11.6336 23.7852 11.7114 23.8635 11.8052 23.9179C11.8991 23.9722 12.0057 24.0006 12.1141 24.0002C12.2226 23.9998 12.329 23.9706 12.4224 23.9156C12.5159 23.8605 12.593 23.7816 12.646 23.687L23.906 3.55198C23.9624 3.45067 23.9889 3.33541 23.9824 3.21963C23.9758 3.10385 23.9365 2.9923 23.869 2.89799C23.8016 2.80368 23.7087 2.73048 23.6012 2.68693C23.4937 2.64338 23.3761 2.63125 23.262 2.65198Z" fill="white"/>
</svg>
